<?xml version="1.0" encoding="UTF-8"?>
<svg id="Calque_1" xmlns="http://www.w3.org/2000/svg" version="1.1" viewBox="0 0 220.3 144.33">
  <!-- Generator: Adobe Illustrator 30.2.1, SVG Export Plug-In . SVG Version: 2.1.1 Build 1)  -->
  <path d="M96.77,73.53c2.37-5.12,5.9-9.22,10.43-11.82.43-.25.77-.5.88-.95.65-.65.88-1.75.51-2.59-1.62-3.69-3.28-7.1-5.37-10.51-7.01-11.44-16.12-20.81-26.77-27.89-8.99-5.98-18.31-10.84-28.32-14.36C34.12.48,15.29-2.84,1.17,3.43.22,3.85-.2,4.84.09,5.83c.23.78,1.08,1.31,1.95.95,6.34-2.67,11.83-3.4,18.48-3.2,4.28,2.97,8,6.29,11.55,10.18l8.45,9.29c2.81,3.09,5.82,5.66,9.27,7.74,1.62,7.37.06,15.04-7.04,17.36-1.01.33-1.62,1.21-1.47,2.19.17,1.17,1,1.41,1.99,1.4,4.82-.06,9.35-.55,14.23-.09-4.68,1.72-8.41,4.13-12.18,6.65-6.07,4.06-11.2,9.46-14.43,16.47-.29.63-.33,1.46.05,2.02.84,1.26,3.89-.07,4.38,3.75.26,2.07-.04,4.13-.49,6.2-1.5,7-3.63,10.31-2.8,18.2-8.74,10.94-15.34,23.33-19.52,36.99-.35,1.16.31,2.13,1.1,2.34.89.24,1.39-.34,1.81-1.32,1.65-3.85,2.34-8.5,4.78-11.94,4.46-6.3,17.51-11.92,24.17-15.5,4.53-2.43,8.8-4.94,12.83-8.37,6.44,5.03,18.61.91,25.49-1.97,3.48-1.46,6.65.64,8.94,3.36.63.74,1.5,1,2.34.37.5-.38.93-1.25.75-2.19-2.06-10.74-2.63-23,2.09-33.2ZM103.45,58.76l-3.58,1.41c-12.33,3.55-24.23,9.32-35.56,16.3-7.11,4.38-13.49,9.48-19.89,15.09-.21-3.11.47-5.54.93-8.2,10.64-9.82,23.9-16.9,36.48-22.01,5.35-2.17,11.07-3.35,16.65-4.97,1.83.5,3.44,1.57,4.97,2.38ZM82.26,88.01c-.17,2.27-.37,4.34-.37,6.9-2.66-.96-7.11-5.51-6.89-8.8.63-1.05,1.7-1.81,2.48-2.57,1.06,2.26,2.68,3.56,4.78,4.47ZM80.16,80.87l5.15-4.42c-.96,2.79-1.73,5.13-2.36,7.98-1.37-.56-2.75-1.66-2.79-3.56ZM73.96,82.26l4.89-10.1c4.84-2.11,9.28-4.58,14.46-6.02-6.91,4.94-13.22,9.98-19.34,16.11ZM45.94,78.43c-.11-2.37-.15-4.37-.84-6.57,8.05-6.3,16.71-10.34,25.61-14.31,4.37-1.14,8.51-3.69,13.1-4.35,2.73-.39,5.32.87,8.06,1.32-5.53,1.38-10.79,3.7-16.3,5.98-10.45,4.32-20.44,10.12-29.62,17.93ZM95.27,51.41c.09,0,.16.08.16.18,0,.1-.08.19-.17.19-.09,0-.16-.08-.16-.18,0-.1.08-.19.17-.19ZM85.73,49.73c-7.4-1.23-14.72-1.56-22.15-1.89.99-1.93,1.63-3.13,2.02-4.93,9.72.09,20.59,3.71,29.28,8.45l-9.15-1.63ZM65.97,39.31c.03-1.99-.28-3.24-.36-4.87,10.7,1.72,20.88,5.77,29.59,12.83l-11.44-4.62c-5.72-2.31-11.65-3.11-17.79-3.34ZM95.59,47.3c.09,0,.16.08.16.18,0,.1-.08.19-.17.19-.09,0-.16-.08-.16-.18,0-.1.08-.19.17-.19ZM96.56,43.52c.07,0,.13.06.13.15,0,.08-.06.15-.13.15-.07,0-.13-.06-.13-.15,0-.08.06-.15.13-.15ZM96.33,43.55l-9.88-6.35c-3.55-2.28-5.11-7.07-6.86-10.87,6.46,4.89,12,10.41,16.74,17.22ZM74.76,22.77c1.35,4.26,3.14,7.84,5.19,11.83-2.11-1.19-4.66-.94-6.56-2.38-4.86-3.68-7.8-9.66-9.34-15.75,4.12,1.87,7.25,4.14,10.72,6.3ZM60.19,14.32c1.22,6.28,3.53,11.85,7.16,16.69-3.56.14-5.13-1.14-7.65-3.79-4.65-4.87-8.38-10.81-10.54-17.64,4.06,1.36,7.44,2.99,11.03,4.74ZM46.39,24.1c-3.02-2.73-5.5-5.58-8.2-8.55-3.62-4.12-7.25-7.96-11.39-11.52,6.54.63,12.48,2.17,18.58,4.14,2.22,8.41,6.5,15.57,11.98,21.65-4.33-.67-7.67-2.94-10.97-5.72ZM58.66,47.59c-3.03.65-6.08.09-9.17.29,2.02-2.7,3.24-5.11,3.67-8.21.46-2.39.28-4.68.18-7.24,2.99,1.12,5.8,1.38,8.78,1.59.74,2.57.93,4.96.56,7.68-.56,2.19-1.76,5.41-4.02,5.9ZM49.69,59.16c6.54-3.47,13.38-7.68,20.6-7.39l5.47.22c-3.63,1.61-7.39,2.66-10.98,4.7-7.5,2.95-14.64,7.2-21.39,12.19-.95-1.07-1.67-1.64-2.8-2.4,2.69-2.93,5.84-5.09,9.1-7.32ZM38.52,81.42c-.08-3.1-1.27-5.74-3.87-7.03,1.03-1.98,2.1-3.54,3.44-5.13,6.81,2.32,4.31,11.25,3.54,17.27-.51,2.6-.6,5.06.04,7.72-2.33,2.32-4.45,4.57-6.67,7.07-.08-6.75,3.75-12.78,3.52-19.89ZM23.97,122.91c.56-1.47,1.35-2.41,2.06-3.8l6.4-1.36c-2.92,1.69-5.57,3.21-8.46,5.16ZM28.83,114.81c11.57-17.52,28.02-30.85,45.29-40.1-2.37,4.88-7.29,14.24-12,15.72-22.31,2.91-12.29,13.96-24.33,21.05-2.81,1.56-5.65,2.75-8.96,3.33ZM51.47,107.29c-2.89,1.97-5.64,3.79-9,5.15,6.81-6.63,4.19-13.24,11.44-16.44,3.91-1.79,6.38-1.39,10.75-2.7-3.45,5.79-7.92,10.41-13.19,14ZM63.72,105.92c-1.42-.29-2.7-.37-3.86-1.25,2.49-2.42,4.43-5.02,6.5-7.99,1.39,3.65,3.46,6.09,6.43,8.13-3.04,1.05-5.98,1.27-9.08,1.12ZM78.23,103.04c-4.15-.25-8.99-5.09-9.43-9.83,1.24-1.51,2.16-2.85,3.47-4.14,2.21,5.47,5.33,7.58,9.75,10.04.51.28.77,1.97.38,2.45-1.21.36-2.82,1.57-4.19,1.48ZM85.86,101.06c-.92-4.13-1-7.94-.49-11.97.78-6,2.66-11.58,5.34-16.86,1.63-1.11,2.95-2.35,4.83-3.25-5.94,10.39-6.35,22.31-4.69,34.14-1.64-1.04-3.15-1.61-4.99-2.07Z"/>
  <path d="M200.79,142.02c-3.48-13.67-9.44-26.07-17.62-37.01,1.23-7.88-.73-11.2-1.87-18.2-.34-2.07-.54-4.13-.17-6.2.68-3.82,3.67-2.48,4.57-3.74.4-.56.41-1.39.15-2.02-2.88-7.02-7.72-12.42-13.59-16.49-3.64-2.52-7.25-4.94-11.84-6.66,4.9-.46,9.41.03,14.22.1.99.01,1.83-.22,2.06-1.4.19-.98-.37-1.87-1.36-2.19-6.98-2.32-8.15-9.99-6.15-17.36,3.55-2.08,6.69-4.65,9.67-7.74l8.93-9.28c3.75-3.89,7.63-7.21,12.07-10.17,6.66-.2,12.1.53,18.31,3.21.85.37,1.73-.17,2-.95.34-1-.02-1.98-.95-2.4-13.8-6.28-32.8-2.98-47.07,1.94-10.19,3.51-19.76,8.37-29.06,14.34-11.02,7.07-20.6,16.43-28.2,27.87-2.27,3.42-4.11,6.82-5.91,10.51-.42.85-.24,1.95.37,2.59.08.44.41.7.83.95,4.4,2.6,7.72,6.71,9.82,11.83,4.2,10.2,3,22.46.38,33.2-.23.94.15,1.8.64,2.19.8.63,1.69.37,2.36-.37,2.44-2.72,5.71-4.82,9.12-3.36,6.73,2.89,18.69,7.02,25.38,2,3.85,3.43,7.99,5.94,12.4,8.38,6.47,3.58,19.23,9.21,23.37,15.52,2.26,3.44,2.71,8.09,4.16,11.94.37.98.83,1.55,1.74,1.32.8-.21,1.51-1.18,1.22-2.34ZM178.92,69.32c1.26,1.6,2.24,3.15,3.18,5.13-2.67,1.28-3.99,3.92-4.23,7.03-.59,7.11,2.92,13.15,2.5,19.89-2.09-2.5-4.1-4.75-6.3-7.07.78-2.65.81-5.12.43-7.72-.46-6.02-2.5-14.95,4.43-17.26ZM167.83,59.21c3.15,2.23,6.18,4.39,8.72,7.32-1.17.77-1.92,1.33-2.92,2.4-6.49-4.99-13.41-9.25-20.76-12.21-3.48-2.05-7.19-3.1-10.74-4.71l5.48-.21c7.24-.28,13.85,3.93,20.22,7.4ZM134.03,53.23c4.56.66,8.56,3.22,12.87,4.36,8.69,3.97,17.14,8.02,24.87,14.33-.8,2.2-.95,4.2-1.18,6.57-8.78-7.82-18.47-13.63-28.7-17.96-5.39-2.28-10.53-4.61-15.99-5.99,2.76-.44,5.42-1.7,8.13-1.31ZM123.05,51.37c8.93-4.74,19.99-8.35,29.72-8.43.29,1.8.87,3,1.76,4.93-7.45.33-14.78.65-22.24,1.87l-9.24,1.62ZM168.62,47.92c-3.08-.2-6.16.36-9.16-.29-2.23-.49-3.27-3.71-3.72-5.9-.23-2.72.08-5.11.96-7.68,2.99-.21,5.82-.47,8.86-1.58-.24,2.57-.53,4.85-.19,7.24.28,3.1,1.37,5.52,3.25,8.22ZM193.56,4.1c-4.32,3.56-8.15,7.39-11.98,11.51-2.85,2.97-5.47,5.81-8.64,8.54-3.45,2.78-6.9,5.04-11.27,5.71,5.79-6.08,10.44-13.23,13.1-21.64,6.2-1.96,12.22-3.5,18.79-4.12ZM159.64,14.36c3.69-1.75,7.15-3.37,11.28-4.73-2.5,6.83-6.54,12.77-11.44,17.63-2.66,2.64-4.3,3.92-7.85,3.78,3.87-4.84,6.47-10.41,8.01-16.69ZM144.64,22.8c3.58-2.15,6.82-4.42,11.04-6.29-1.85,6.08-5.11,12.06-10.15,15.74-1.98,1.44-4.52,1.19-6.69,2.38,2.25-3.99,4.23-7.56,5.8-11.82ZM153.18,34.48c-.16,1.63-.53,2.88-.61,4.87-6.15.23-12.12,1.02-17.96,3.32l-11.68,4.61c9.07-7.06,19.45-11.1,30.24-12.81ZM122.82,51.61c0,.1-.08.19-.17.18-.09,0-.16-.09-.16-.19,0-.1.08-.19.17-.18s.16.08.16.19ZM139.62,26.35c-1.94,3.79-3.75,8.58-7.42,10.86l-10.2,6.35c5.09-6.81,10.91-12.33,17.62-17.21ZM122.71,47.5c0,.1-.08.19-.17.18-.09,0-.16-.08-.16-.19s.08-.19.17-.18c.09,0,.16.08.16.19ZM121.77,43.53c.07,0,.13.07.13.15,0,.08-.06.15-.14.15-.07,0-.13-.07-.12-.15s.06-.15.14-.15ZM117.61,60.18l-3.51-1.41c1.57-.81,3.24-1.88,5.09-2.37,5.5,1.62,11.16,2.8,16.4,4.98,12.31,5.12,25.21,12.21,35.35,22.04.33,2.66.88,5.09.51,8.2-6.12-5.62-12.23-10.72-19.12-15.11-10.97-6.99-22.58-12.77-34.72-16.33ZM123.87,66.16c5.11,1.44,9.42,3.91,14.15,6.03l4.37,10.1c-5.8-6.14-11.85-11.18-18.51-16.13ZM133.28,84.45c-.49-2.85-1.14-5.19-1.95-7.98l4.93,4.42c-.14,1.9-1.57,3-2.97,3.56ZM124.42,103.14c2.26-11.83,2.47-23.75-2.94-34.15,1.84.89,3.09,2.14,4.67,3.25,2.41,5.28,4.01,10.86,4.48,16.86.3,4.03.02,7.85-1.11,11.97-1.87.45-3.41,1.02-5.1,2.06ZM133.79,88.03c2.15-.91,3.84-2.21,5.01-4.47.74.76,1.78,1.52,2.35,2.57.05,3.29-4.63,7.84-7.34,8.8.13-2.56.04-4.63-.02-6.9ZM137.05,103.06c-1.37.08-2.92-1.12-4.11-1.49-.37-.48-.01-2.17.51-2.45,4.55-2.46,7.78-4.56,10.27-10.03,1.25,1.29,2.1,2.63,3.26,4.14-.68,4.74-5.77,9.58-9.93,9.82ZM151.4,105.96c-3.11.15-6.04-.08-9.02-1.13,3.08-2.03,5.27-4.47,6.85-8.12,1.92,2.97,3.73,5.58,6.09,8-1.21.89-2.49.96-3.93,1.25ZM163.58,107.34c-5.08-3.59-9.31-8.21-12.47-14.01,4.3,1.32,6.79.92,10.61,2.71,7.09,3.21,4.12,9.81,10.59,16.45-3.3-1.36-5.95-3.18-8.74-5.15ZM177.05,111.54c-11.67-7.09-1.09-18.14-23.25-21.07-4.63-1.49-9.07-10.85-11.19-15.73,16.79,9.26,32.56,22.61,43.23,40.14-3.28-.58-6.07-1.78-8.79-3.34ZM182.08,117.82l6.33,1.37c.64,1.38,1.38,2.33,1.87,3.8-2.8-1.95-5.36-3.48-8.2-5.17Z"/>
</svg>